:version 1.10
:name ASF
:units
  mass 1
  length 1
  angle deg
:documentation
  ASF file generated by Kaydara
:root
  axis xyz
  order  tx ty tz rx ry rz
  position 0 0 0
  orientation 0 0 0
:bonedata
  begin
    id 1
    name RightUpLegDummy
    direction -0.718183 -0.695806 0.00816078
    length 4.904
    axis 0 0 0 xyz
  end
  begin
    id 2
    name RightUpLeg
    direction -0.0736652 -0.994202 0.0783343
    length 17.4976
    axis -2.72909 -3.00389 -4.00133 xyz
    dof rx ry rz
  end
  begin
    id 3
    name RightLeg
    direction -0.0389037 -0.994596 -0.0962598
    length 16.5821
    axis 3.95836 -18.5909 -4.46993 xyz
    dof rx ry rz
  end
  begin
    id 4
    name RightFoot
    direction -0.311643 -0.412678 0.855906
    length 3.77069
    axis -1.99483 -18.8351 -3.27644 xyz
    dof rx ry rz
  end
  begin
    id 5
    name RightToes
    direction -0.317852 0.0389852 0.947339
    length 3.85082
    axis -2.00228 -18.1713 -3.25211 xyz
    dof rx ry rz
  end
  begin
    id 6
    name SpineDummy
    direction 8.3039e-015 1 4.44677e-016
    length 4.6813
    axis 0 0 0 xyz
  end
  begin
    id 7
    name Spine
    direction -0.000262373 0.999988 0.00493267
    length 10.1015
    axis -0.00246081 0.00062579 0.0150362 xyz
    dof rx ry rz
  end
  begin
    id 8
    name Spine1
    direction 0 0 0
    length 0
    axis -0.00349562 0.000650293 0.0196666 xyz
    dof rx ry rz
  end
  begin
    id 9
    name HEadDummy
    direction -0.000343232 0.999999 0.00123745
    length 3.43865
    axis -0.00349562 0.000650293 0.0196666 xyz
  end
  begin
    id 10
    name HEad
    direction -0.0461221 0.980933 0.188796
    length 5.12695
    axis -0.00351404 -7.04812 0.0199272 xyz
    dof rx ry rz
  end
  begin
    id 11
    name LeftShoulder1Dummy
    direction 0.998904 -0.0399089 -0.0244534
    length 3.5433
    axis -0.00349562 0.000650293 0.0196666 xyz
  end
  begin
    id 12
    name LeftShoulder1
    direction 0.99951 1.64443e-005 0.0312999
    length 4.05031
    axis -0.00349562 0.000650293 0.0196666 xyz
    dof rx ry rz
  end
  begin
    id 13
    name LeftArm
    direction 0.984791 0.0515299 0.165927
    length 12.9126
    axis -64.823 -10.7743 5.20463 xyz
    dof rx ry rz
  end
  begin
    id 14
    name LeftForeArm
    direction 0.984968 0.0534808 0.16425
    length 10.8596
    axis -30.0462 -7.70601 1.87451 xyz
    dof rx ry rz
  end
  begin
    id 15
    name LeftHand
    direction 0.975871 0.0289682 0.216418
    length 6.62295
    axis -20.1348 -6.98077 1.86072 xyz
    dof rx ry rz
  end
  begin
    id 16
    name RightShoulderDummy
    direction -0.998877 -0.0405946 -0.0244307
    length 3.5433
    axis -0.00349562 0.000650293 0.0196666 xyz
  end
  begin
    id 17
    name RightShoulder
    direction -0.998933 -0.0249743 -0.0388558
    length 4.05031
    axis -0.0205316 -4.02113 1.41395 xyz
    dof rx ry rz
  end
  begin
    id 18
    name RightArm
    direction -0.997559 0.068664 0.0127103
    length 12.9638
    axis -67.3882 1.84188 -6.15987 xyz
    dof rx ry rz
  end
  begin
    id 19
    name RightForeArm
    direction -0.991508 0.0912848 0.0926241
    length 10.8312
    axis -22.1975 3.41087 -4.28711 xyz
    dof rx ry rz
  end
  begin
    id 20
    name RightHand
    direction -0.989262 0.0600788 0.133232
    length 6.57864
    axis -12.2911 2.17515 -4.39675 xyz
    dof rx ry rz
  end
  begin
    id 21
    name LeftUpLegDummy
    direction 0.718183 -0.695806 0.00816078
    length 4.904
    axis 0 0 0 xyz
  end
  begin
    id 22
    name LeftUpLeg
    direction 0.0831398 -0.99469 0.0606531
    length 17.4976
    axis -1.71016 2.29552 4.63832 xyz
    dof rx ry rz
  end
  begin
    id 23
    name LeftLeg
    direction 0.0498442 -0.991778 -0.117862
    length 16.5821
    axis 5.13757 15.5727 5.13348 xyz
    dof rx ry rz
  end
  begin
    id 24
    name LeftFoot
    direction 0.269026 -0.433896 0.85986
    length 3.77069
    axis -0.576502 15.6961 4.10267 xyz
    dof rx ry rz
  end
  begin
    id 25
    name LeftToes
    direction 0.277311 0.0251143 0.960452
    length 3.85048
    axis -0.576502 15.6961 4.10267 xyz
    dof rx ry rz
  end
:hierarchy
  begin
    root RightUpLegDummy SpineDummy LeftUpLegDummy
    RightUpLegDummy RightUpLeg
    RightUpLeg RightLeg
    RightLeg RightFoot
    RightFoot RightToes
    SpineDummy Spine
    Spine Spine1
    Spine1 HEadDummy LeftShoulder1Dummy RightShoulderDummy
    HEadDummy HEad
    LeftShoulder1Dummy LeftShoulder1
    LeftShoulder1 LeftArm
    LeftArm LeftForeArm
    LeftForeArm LeftHand
    RightShoulderDummy RightShoulder
    RightShoulder RightArm
    RightArm RightForeArm
    RightForeArm RightHand
    LeftUpLegDummy LeftUpLeg
    LeftUpLeg LeftLeg
    LeftLeg LeftFoot
    LeftFoot LeftToes
  end

:SAMPLES-PER-SECOND 30
:FULLY-SPECIFIED
:DEGREES
190
root  -3.4601 18.9401 65.0138 -123.719 10.2024 -179.383
RightUpLeg  -37.4694 -9.93837 4.49897
RightLeg  92.7049 16.7587 -9.27095
RightFoot  -40.0197 3.02289 12.0684
RightToes  -5.82073e-011 -3.18055e-015 -2.98177e-016
Spine  37.4325 -2.84315 5.14756
Spine1  -10.9968 -1.15821 -9.43309
HEad  -22.2645 5.49554 8.93857
LeftShoulder1  -3.88251e-019 9.70628e-020 -3.87848e-018
LeftArm  1.53047 9.75004 -63.1921
LeftForeArm  21.1985 -19.3707 -4.7796
LeftHand  -12.6818 -11.6282 75.8073
RightShoulder  2.62789 7.76152 12.1799
RightArm  -1.17084 19.9562 72.3643
RightForeArm  3.36754 15.2049 -10.4071
RightHand  -9.91377 9.08619 -69.3279
LeftUpLeg  -62.4373 2.96642 -14.7317
LeftLeg  111.474 -23.4739 21.1691
LeftFoot  -12.6073 -0.0285587 -1.03679
LeftToes  -2.27483e-011 -5.53417e-011 9.36564e-012
191
root  -3.55395 19.0221 64.3027 -123.22 8.77785 179.587
RightUpLeg  -36.4208 -11.3925 3.88725
RightLeg  91.1445 16.3169 -6.82894
RightFoot  -38.0362 3.17233 13.7897
RightToes  -5.82073e-011 -3.18055e-015 -2.98177e-016
Spine  35.854 -2.94563 5.88167
Spine1  -10.3206 -1.45477 -4.92531
HEad  -21.8561 5.68573 7.87645
LeftShoulder1  -3.88251e-019 9.70628e-020 -3.87848e-018
LeftArm  4.96494 13.1771 -63.9607
LeftForeArm  15.0255 -22.4043 -1.69197
LeftHand  -13.4811 -12.7685 75.5172
RightShoulder  3.79435 8.45352 18.6696
RightArm  5.63696 22.0078 69.9788
RightForeArm  4.95444 15.0972 -8.47886
RightHand  -10.497 9.77331 -69.9265
LeftUpLeg  -60.8323 1.0595 -14.0623
LeftLeg  109.243 -22.3551 20.8726
LeftFoot  -12.1338 -0.0108479 -2.55502
LeftToes  -2.27483e-011 -5.53417e-011 9.36564e-012
192
root  -3.66376 19.1501 63.5911 -122.711 7.88797 178.833
RightUpLeg  -36.3491 -11.9149 2.87752
RightLeg  90.82 16.096 -4.2195
RightFoot  -33.8056 2.8938 15.208
RightToes  -5.82073e-011 -3.18055e-015 -2.98177e-016
Spine  34.9179 -3.1161 6.87533
Spine1  -10.5794 -1.66208 -1.92225
HEad  -21.5469 5.49756 7.11124
LeftShoulder1  -3.88251e-019 9.70628e-020 -3.87848e-018
LeftArm  6.85636 15.3539 -64.454
LeftForeArm  9.92136 -24.8865 1.82209
LeftHand  -13.6161 -13.0085 75.3262
RightShoulder  4.61223 8.95128 22.7995
RightArm  8.75545 22.7794 68.1935
RightForeArm  7.52409 14.8252 -7.12157
RightHand  -11.0789 10.3489 -70.8501
LeftUpLeg  -59.1872 -0.852617 -13.6368
LeftLeg  106.846 -21.2971 20.7073
LeftFoot  -11.9627 0.00719584 -4.10779
LeftToes  -2.27483e-011 -5.53417e-011 9.36564e-012
193
root  -3.79825 19.2238 63.0135 -121.655 8.04042 179.055
RightUpLeg  -38.6307 -10.5153 1.78766
RightLeg  92.6676 16.0205 -2.13646
RightFoot  -27.6923 1.86586 13.7527
RightToes  -5.82073e-011 -3.18055e-015 -2.98177e-016
Spine  34.1283 -2.98851 7.84246
Spine1  -11.2133 -1.36269 -1.35964
HEad  -21.4569 5.3506 7.08788
LeftShoulder1  -3.88251e-019 9.70628e-020 -3.87848e-018
LeftArm  6.98772 15.802 -64.0092
LeftForeArm  6.53257 -27.4753 5.19272
LeftHand  -13.253 -12.6736 74.8648
RightShoulder  4.63034 9.06692 22.6724
RightArm  8.0435 21.4443 67.8195
RightForeArm  9.1856 14.489 -6.98021
RightHand  -11.407 10.5187 -71.8652
LeftUpLeg  -58.3018 -1.37704 -13.5627
LeftLeg  104.972 -20.3247 20.1536
LeftFoot  -12.7871 -0.0193768 -6.05117
LeftToes  -2.27483e-011 -5.53417e-011 9.36564e-012
194
root  -3.96031 19.2588 62.5972 -120.492 9.16371 -179.786
RightUpLeg  -42.6625 -7.93068 0.607468
RightLeg  96.5971 15.9399 -0.865175
RightFoot  -22.9583 0.845547 9.10384
RightToes  -5.82073e-011 -3.18055e-015 -2.98177e-016
Spine  33.5799 -2.11736 8.25701
Spine1  -11.7445 -0.341479 -1.69385
HEad  -21.5112 5.25786 6.76462
LeftShoulder1  -3.88251e-019 9.70628e-020 -3.87848e-018
LeftArm  3.26098 14.1745 -63.1793
LeftForeArm  6.57412 -30.0077 6.81986
LeftHand  -12.8493 -12.5048 73.6788
RightShoulder  4.59505 9.18792 22.2391
RightArm  7.5434 20.3986 67.2282
RightForeArm  10.0959 13.9836 -6.58876
RightHand  -11.4979 10.4429 -72.5597
LeftUpLeg  -57.8061 -0.616961 -13.8707
LeftLeg  103.613 -19.5366 19.4282
LeftFoot  -13.9009 -0.0935381 -7.98176
LeftToes  -2.27483e-011 -5.53417e-011 9.36564e-012
195
root  -4.12667 19.3472 62.2136 -120.519 9.99397 -178.49
RightUpLeg  -46.0317 -6.18573 -0.250566
RightLeg  101.668 15.932 -0.691966
RightFoot  -22.1968 0.458674 5.00836
RightToes  -5.82073e-011 -3.18055e-015 -2.98177e-016
Spine  34.5599 -1.51965 8.87162
Spine1  -12.7744 0.578113 -1.79458
HEad  -21.5359 5.40792 6.02887
LeftShoulder1  -3.88251e-019 9.70628e-020 -3.87848e-018
LeftArm  -1.34234 10.5651 -62.0266
LeftForeArm  6.90426 -31.3268 7.10808
LeftHand  -12.3276 -12.5061 71.3904
RightShoulder  4.5966 9.38438 21.8917
RightArm  6.78691 19.2262 66.9145
RightForeArm  11.8434 13.306 -6.2838
RightHand  -11.5697 10.3981 -73.0571
LeftUpLeg  -56.2199 0.182402 -13.8122
LeftLeg  102.46 -18.8637 18.6835
LeftFoot  -14.7201 -0.177035 -9.65978
LeftToes  -2.27483e-011 -5.53417e-011 9.36564e-012
196
root  -4.2642 19.4371 61.8284 -120.54 10.3945 -177.069
RightUpLeg  -49.886 -5.20413 -0.36684
RightLeg  107.624 16.1396 -1.23905
RightFoot  -24.5885 0.554876 4.74918
RightToes  -5.82073e-011 -3.18055e-015 -2.98177e-016
Spine  35.499 -1.1 9.67914
Spine1  -13.6297 1.30195 -1.48324
HEad  -21.9045 5.69859 5.40398
LeftShoulder1  -3.88251e-019 9.70628e-020 -3.87848e-018
LeftArm  -4.88019 4.92591 -60.5788
LeftForeArm  6.37285 -30.3376 6.80357
LeftHand  -11.5003 -12.1942 68.6056
RightShoulder  4.53606 9.56956 21.2099
RightArm  6.28636 18.1945 66.753
RightForeArm  12.8853 12.9721 -6.1274
RightHand  -11.615 10.3268 -73.521
LeftUpLeg  -54.7778 1.03875 -13.26
LeftLeg  101.6 -18.2659 17.7549
LeftFoot  -15.3559 -0.262737 -11.171
LeftToes  -2.27483e-011 -5.53417e-011 9.36564e-012
197
root  -4.35366 19.4257 61.4825 -119.728 10.7761 -175.985
RightUpLeg  -55.4246 -4.57597 -0.345591
RightLeg  114.254 16.3066 -1.42014
RightFoot  -27.606 0.678251 4.65651
RightToes  -5.82073e-011 -3.18055e-015 -2.98177e-016
Spine  35.2942 -0.735025 9.89078
Spine1  -13.9755 1.65968 -0.991054
HEad  -22.3956 6.22902 5.03388
LeftShoulder1  -3.88251e-019 9.70628e-020 -3.87848e-018
LeftArm  -7.73104 -1.62188 -58.5048
LeftForeArm  5.91127 -28.1067 6.04903
LeftHand  -10.4266 -11.5646 65.3896
RightShoulder  4.49478 9.80918 20.5581
RightArm  5.70517 17.1419 67.1463
RightForeArm  13.6671 12.8256 -6.21573
RightHand  -11.6144 10.2176 -73.9011
LeftUpLeg  -54.3546 1.70956 -12.9804
LeftLeg  100.948 -17.7884 16.8839
LeftFoot  -15.8607 -0.34518 -12.4687
LeftToes  -2.27483e-011 -5.53417e-011 9.36564e-012
